<mxfile host="65bd71144e">
    <diagram name="ページ1" id="-delzdfiWfn2jljciURD">
        <mxGraphModel dx="1722" dy="735" grid="1" gridSize="10" guides="1" tooltips="1" connect="1" arrows="1" fold="1" page="1" pageScale="1" pageWidth="1169" pageHeight="827" math="0" shadow="0">
            <root>
                <mxCell id="0"/>
                <mxCell id="1" parent="0"/>
                <mxCell id="3u7Lf1-dCIFI2JJC588A-3" value="AWS Account" style="points=[[0,0],[0.25,0],[0.5,0],[0.75,0],[1,0],[1,0.25],[1,0.5],[1,0.75],[1,1],[0.75,1],[0.5,1],[0.25,1],[0,1],[0,0.75],[0,0.5],[0,0.25]];outlineConnect=0;gradientColor=none;html=1;whiteSpace=wrap;fontSize=12;fontStyle=0;container=1;pointerEvents=0;collapsible=0;recursiveResize=0;shape=mxgraph.aws4.group;grIcon=mxgraph.aws4.group_account;strokeColor=#CD2264;fillColor=none;verticalAlign=top;align=left;spacingLeft=30;fontColor=#CD2264;dashed=0;" parent="1" vertex="1">
                    <mxGeometry x="490" y="80" width="440" height="200" as="geometry"/>
                </mxCell>
                <mxCell id="3u7Lf1-dCIFI2JJC588A-5" style="rounded=0;orthogonalLoop=1;jettySize=auto;html=1;exitX=1;exitY=0.5;exitDx=0;exitDy=0;exitPerimeter=0;entryX=0;entryY=0.5;entryDx=0;entryDy=0;entryPerimeter=0;startArrow=classic;startFill=1;" parent="3u7Lf1-dCIFI2JJC588A-3" source="3u7Lf1-dCIFI2JJC588A-2" target="3u7Lf1-dCIFI2JJC588A-1" edge="1">
                    <mxGeometry relative="1" as="geometry"/>
                </mxCell>
                <mxCell id="3u7Lf1-dCIFI2JJC588A-2" value="" style="sketch=0;points=[[0,0,0],[0.25,0,0],[0.5,0,0],[0.75,0,0],[1,0,0],[0,1,0],[0.25,1,0],[0.5,1,0],[0.75,1,0],[1,1,0],[0,0.25,0],[0,0.5,0],[0,0.75,0],[1,0.25,0],[1,0.5,0],[1,0.75,0]];outlineConnect=0;fontColor=#232F3E;gradientColor=#945DF2;gradientDirection=north;fillColor=#5A30B5;strokeColor=#ffffff;dashed=0;verticalLabelPosition=bottom;verticalAlign=top;align=center;html=1;fontSize=12;fontStyle=0;aspect=fixed;shape=mxgraph.aws4.resourceIcon;resIcon=mxgraph.aws4.cloudfront;" parent="3u7Lf1-dCIFI2JJC588A-3" vertex="1">
                    <mxGeometry x="40" y="81" width="80" height="80" as="geometry"/>
                </mxCell>
                <mxCell id="3u7Lf1-dCIFI2JJC588A-1" value="" style="sketch=0;points=[[0,0,0],[0.25,0,0],[0.5,0,0],[0.75,0,0],[1,0,0],[0,1,0],[0.25,1,0],[0.5,1,0],[0.75,1,0],[1,1,0],[0,0.25,0],[0,0.5,0],[0,0.75,0],[1,0.25,0],[1,0.5,0],[1,0.75,0]];outlineConnect=0;fontColor=#232F3E;gradientColor=#60A337;gradientDirection=north;fillColor=#277116;strokeColor=#ffffff;dashed=0;verticalLabelPosition=bottom;verticalAlign=top;align=center;html=1;fontSize=12;fontStyle=0;aspect=fixed;shape=mxgraph.aws4.resourceIcon;resIcon=mxgraph.aws4.s3;" parent="3u7Lf1-dCIFI2JJC588A-3" vertex="1">
                    <mxGeometry x="320" y="81" width="78" height="78" as="geometry"/>
                </mxCell>
                <mxCell id="3u7Lf1-dCIFI2JJC588A-10" style="edgeStyle=orthogonalEdgeStyle;rounded=0;orthogonalLoop=1;jettySize=auto;html=1;exitX=0;exitY=0.5;exitDx=0;exitDy=0;exitPerimeter=0;entryX=0;entryY=0.75;entryDx=0;entryDy=0;entryPerimeter=0;" parent="3u7Lf1-dCIFI2JJC588A-3" source="3u7Lf1-dCIFI2JJC588A-2" target="3u7Lf1-dCIFI2JJC588A-2" edge="1">
                    <mxGeometry relative="1" as="geometry">
                        <Array as="points">
                            <mxPoint x="-20" y="121"/>
                            <mxPoint x="-20" y="141"/>
                        </Array>
                    </mxGeometry>
                </mxCell>
                <mxCell id="3" value="Origin Access Control" style="text;html=1;strokeColor=none;fillColor=none;align=center;verticalAlign=middle;whiteSpace=wrap;rounded=0;" vertex="1" parent="3u7Lf1-dCIFI2JJC588A-3">
                    <mxGeometry x="150" y="85" width="140" height="30" as="geometry"/>
                </mxCell>
                <mxCell id="3u7Lf1-dCIFI2JJC588A-8" style="rounded=0;orthogonalLoop=1;jettySize=auto;html=1;exitX=1;exitY=0.5;exitDx=0;exitDy=0;entryX=0;entryY=0.25;entryDx=0;entryDy=0;entryPerimeter=0;exitPerimeter=0;" parent="1" source="2" target="3u7Lf1-dCIFI2JJC588A-2" edge="1">
                    <mxGeometry relative="1" as="geometry">
                        <mxPoint x="315.25" y="181" as="sourcePoint"/>
                    </mxGeometry>
                </mxCell>
                <mxCell id="3u7Lf1-dCIFI2JJC588A-9" value="HTTP / HTTPS" style="text;html=1;strokeColor=none;fillColor=none;align=center;verticalAlign=middle;whiteSpace=wrap;rounded=0;" parent="1" vertex="1">
                    <mxGeometry x="340" y="150" width="100" height="30" as="geometry"/>
                </mxCell>
                <mxCell id="3u7Lf1-dCIFI2JJC588A-11" value="HTTP→HTTPS" style="text;html=1;strokeColor=none;fillColor=none;align=center;verticalAlign=middle;whiteSpace=wrap;rounded=0;" parent="1" vertex="1">
                    <mxGeometry x="370" y="200" width="90" height="30" as="geometry"/>
                </mxCell>
                <mxCell id="2" value="" style="fontColor=#0066CC;verticalAlign=top;verticalLabelPosition=bottom;labelPosition=center;align=center;html=1;outlineConnect=0;fillColor=#CCCCCC;strokeColor=#6881B3;gradientColor=none;gradientDirection=north;strokeWidth=2;shape=mxgraph.networks.terminal;" parent="1" vertex="1">
                    <mxGeometry x="200" y="142.5" width="80" height="75" as="geometry"/>
                </mxCell>
            </root>
        </mxGraphModel>
    </diagram>
</mxfile>